<?xml version="1.0" encoding="UTF-8"?>
<!DOCTYPE svg PUBLIC "-//W3C//DTD SVG 1.1//EN" "http://www.w3.org/Graphics/SVG/1.1/DTD/svg11.dtd">
<svg xmlns="http://www.w3.org/2000/svg" version="1.1" width="100px" height="100px" style="shape-rendering:geometricPrecision; text-rendering:geometricPrecision; image-rendering:optimizeQuality; fill-rule:evenodd; clip-rule:evenodd" xmlns:xlink="http://www.w3.org/1999/xlink">
<g><path style="opacity:0.776" fill="#000000" d="M 39.5,3.5 C 67.5353,0.41753 86.0353,12.0842 95,38.5C 98.9688,67.417 87.1355,86.2503 59.5,95C 30.6138,98.4238 12.1138,86.2571 4,58.5C 1.27455,30.5892 13.1079,12.2559 39.5,3.5 Z M 40.5,8.5 C 70.2941,6.29705 87.2941,19.9637 91.5,49.5C 87.3177,79.1854 70.3177,92.6854 40.5,90C 16.8194,82.4868 6.31938,66.3201 9,41.5C 13.2409,24.4277 23.7409,13.4277 40.5,8.5 Z"/></g>
<g><path style="opacity:0.811" fill="#000000" d="M 45.5,11.5 C 46.5,11.5 47.5,11.5 48.5,11.5C 48.5,17.5 48.5,23.5 48.5,29.5C 43.6574,29.8835 38.9907,29.2168 34.5,27.5C 36.6671,21.0225 40.3338,15.6891 45.5,11.5 Z"/></g>
<g><path style="opacity:0.874" fill="#000000" d="M 51.5,11.5 C 58.9342,14.6631 63.2675,20.3297 64.5,28.5C 60.2022,29.1995 55.8689,29.5328 51.5,29.5C 51.5,23.5 51.5,17.5 51.5,11.5 Z"/></g>
<g><path style="opacity:0.744" fill="#000000" d="M 37.5,12.5 C 38.0431,12.56 38.3764,12.8933 38.5,13.5C 35.7688,17.7957 33.4355,22.2957 31.5,27C 27.9177,26.7494 24.5844,25.5827 21.5,23.5C 25.8537,18.3298 31.187,14.6631 37.5,12.5 Z"/></g>
<g><path style="opacity:0.754" fill="#000000" d="M 60.5,12.5 C 67.3388,14.4155 73.0055,18.0822 77.5,23.5C 74.9995,25.4998 72.1662,26.8331 69,27.5C 66.1692,22.5057 63.3358,17.5057 60.5,12.5 Z"/></g>
<g><path style="opacity:0.896" fill="#000000" d="M 18.5,26.5 C 22.4274,27.5315 26.2607,28.8648 30,30.5C 29.1048,36.0695 28.6048,41.7361 28.5,47.5C 22.8333,47.5 17.1667,47.5 11.5,47.5C 11.6456,39.7298 13.9789,32.7298 18.5,26.5 Z"/></g>
<g><path style="opacity:0.906" fill="#000000" d="M 77.5,26.5 C 80.6421,26.7993 82.8088,28.4659 84,31.5C 86.05,36.5381 87.55,41.7048 88.5,47C 82.8041,47.8299 77.1375,47.6632 71.5,46.5C 70.8256,41.2483 69.8256,36.0816 68.5,31C 71.8234,29.9601 74.8234,28.4601 77.5,26.5 Z"/></g>
<g><path style="opacity:0.888" fill="#000000" d="M 33.5,31.5 C 38.4725,32.1637 43.4725,32.4971 48.5,32.5C 48.5,37.5 48.5,42.5 48.5,47.5C 42.8333,47.5 37.1667,47.5 31.5,47.5C 31.367,42.0252 32.0337,36.6919 33.5,31.5 Z"/></g>
<g><path style="opacity:0.927" fill="#000000" d="M 61.5,31.5 C 63.1667,31.5 64.8333,31.5 66.5,31.5C 66.8757,36.5504 67.5424,41.5504 68.5,46.5C 62.8722,47.4954 57.2055,47.8288 51.5,47.5C 51.5,42.5 51.5,37.5 51.5,32.5C 55.0419,32.8128 58.3752,32.4794 61.5,31.5 Z"/></g>
<g><path style="opacity:0.894" fill="#000000" d="M 11.5,51.5 C 17.1667,51.5 22.8333,51.5 28.5,51.5C 28.6048,57.2639 29.1048,62.9305 30,68.5C 26.6835,69.8288 23.3502,71.1621 20,72.5C 17.0568,70.6453 15.0568,67.9786 14,64.5C 12.3693,60.3121 11.5359,55.9788 11.5,51.5 Z"/></g>
<g><path style="opacity:0.887" fill="#000000" d="M 31.5,51.5 C 37.1667,51.5 42.8333,51.5 48.5,51.5C 48.5,56.5 48.5,61.5 48.5,66.5C 43.4672,66.6721 38.4672,66.8388 33.5,67C 31.9971,61.9798 31.3304,56.8131 31.5,51.5 Z"/></g>
<g><path style="opacity:0.923" fill="#000000" d="M 51.5,51.5 C 57.2055,51.1712 62.8722,51.5046 68.5,52.5C 67.5424,57.4496 66.8757,62.4496 66.5,67.5C 61.518,66.9466 56.518,66.6133 51.5,66.5C 51.5,61.5 51.5,56.5 51.5,51.5 Z"/></g>
<g><path style="opacity:0.907" fill="#000000" d="M 71.5,51.5 C 77.1764,51.3339 82.8431,51.5006 88.5,52C 87.55,57.2952 86.05,62.4619 84,67.5C 82.9586,69.5852 81.4586,71.2519 79.5,72.5C 75.7932,70.9761 72.1266,69.4761 68.5,68C 69.8985,62.5917 70.8985,57.0917 71.5,51.5 Z"/></g>
<g><path style="opacity:0.811" fill="#000000" d="M 38.5,69.5 C 41.8333,69.5 45.1667,69.5 48.5,69.5C 48.5,75.5 48.5,81.5 48.5,87.5C 43.7421,86.5859 40.2421,83.9192 38,79.5C 36.5584,76.9504 35.3917,74.2837 34.5,71.5C 35.9492,70.8281 37.2825,70.1614 38.5,69.5 Z"/></g>
<g><path style="opacity:0.872" fill="#000000" d="M 51.5,69.5 C 55.8689,69.4672 60.2022,69.8005 64.5,70.5C 63.2675,78.6703 58.9342,84.3369 51.5,87.5C 51.5,81.5 51.5,75.5 51.5,69.5 Z"/></g>
<g><path style="opacity:0.739" fill="#000000" d="M 29.5,71.5 C 30.4959,71.4142 31.3292,71.7476 32,72.5C 34.0815,77.3084 36.0815,81.9751 38,86.5C 31.8585,84.4308 26.5252,81.0975 22,76.5C 21.3123,75.6683 21.479,75.0016 22.5,74.5C 24.8852,73.3385 27.2186,72.3385 29.5,71.5 Z"/></g>
<g><path style="opacity:0.751" fill="#000000" d="M 67.5,71.5 C 71.2298,71.8541 74.5631,73.1874 77.5,75.5C 72.9755,81.2463 67.3089,84.5796 60.5,85.5C 63.8988,81.369 66.2322,76.7024 67.5,71.5 Z"/></g>
</svg>
