<?xml version="1.0" standalone="no"?>
<!DOCTYPE svg PUBLIC "-//W3C//DTD SVG 20010904//EN"
 "http://www.w3.org/TR/2001/REC-SVG-20010904/DTD/svg10.dtd">
<svg version="1.0" xmlns="http://www.w3.org/2000/svg"
 width="100.000000pt" height="100.000000pt" viewBox="0 0 100.000000 100.000000"
 preserveAspectRatio="xMidYMid meet">

<g transform="translate(0.000000,100.000000) scale(0.100000,-0.100000)"
fill="#000000" stroke="none">
<path d="M411 895 c-214 -47 -352 -260 -307 -474 66 -318 453 -435 682 -207
226 227 111 615 -202 681 -82 17 -90 17 -173 0z m119 -84 c0 -26 -4 -30 -32
-33 -27 -3 -33 -9 -46 -45 -7 -24 -20 -43 -28 -43 -8 0 -14 -7 -14 -15 0 -12
14 -15 69 -15 55 0 77 -5 105 -22 36 -24 45 -48 23 -66 -8 -7 -28 -6 -67 4
-30 8 -59 14 -65 14 -6 0 -39 -21 -73 -46 -60 -44 -62 -48 -62 -90 0 -38 5
-50 36 -79 30 -29 43 -35 80 -35 l44 0 0 -39 c0 -52 25 -111 48 -111 21 0 112
118 112 146 1 11 7 30 15 44 20 35 19 60 -4 60 -11 0 -23 12 -31 31 -11 26
-11 33 2 46 14 13 18 13 40 -1 23 -15 28 -15 61 -1 21 8 37 22 37 30 0 10 10
15 30 15 l30 0 0 -65 c0 -138 -88 -267 -215 -314 -81 -31 -197 -27 -270 9
-275 134 -255 529 33 635 20 7 61 14 90 14 51 1 52 0 52 -28z"/>
</g>
</svg> 